PathFileType	4	(X/Y/Z)	D:\TRACE\v60_Jaco2_6-2-23\BothDRS_Motion2_10-v60.trc
DataRate	CameraRate	NumFrames	NumMarkers	Units	OrigDataRate	OrigDataStartFrame	OrigNumFrames
100.00	100.00	      38	9	mm	100.00	6563	      7500
Frame#	Time	front left toe			Front right toe			aft left toe			aft right toe			Arm			FL body			FR body			AL Body			AR Body			
		X1	Y1	Z1	X2	Y2	Z2	X3	Y3	Z3	X4	Y4	Z4	X5	Y5	Z5	X6	Y6	Z6	X7	Y7	Z7	X8	Y8	Z8	X9	Y9	Z9	

6563	65.620	-298.84695	-8.08843	-378.82715	93.13558	73.64961	-370.68042	-262.34265	111.25207	257.53592	91.61855	30.33968	233.84589	-46.05453	1042.25354	-955.23816	-186.09177	532.96735	-524.35236	-26.52123	535.08270	-527.31433	-170.01672	609.88159	418.38702	-12.82931	605.74414	416.05807	
6564	65.630	-297.55258	-7.74137	-378.77203	93.14297	86.06907	-375.96545	-266.66818	122.89924	251.77516	92.99149	29.88964	234.24963	-45.90472	1044.14697	-954.68933	-186.65773	534.35663	-525.28101	-25.86662	536.15717	-528.56580	-169.20140	608.80078	417.86899	-12.42636	604.71960	415.71234	
6565	65.640	-296.56006	-6.77551	-378.46686	92.98370	97.65484	-380.89319	-268.75079	134.55620	245.99214	94.19868	29.31240	234.26620	-45.30592	1046.56384	-954.00818	-186.09329	535.77539	-525.95099	-25.34265	537.19128	-529.22327	-168.36534	608.02893	417.43539	-11.56926	603.40277	415.52292	
6566	65.650	-295.83896	-5.72538	-378.42230	92.28648	108.35410	-385.86011	-270.40182	144.99380	241.20757	95.32748	28.84346	234.52237	-44.91159	1048.96558	-953.45892	-184.80875	536.68903	-525.98706	-25.65560	538.02991	-529.27173	-167.81595	607.22272	417.29028	-10.42720	602.60461	415.14459	
6567	65.660	-294.57141	-5.30064	-378.19635	91.50467	118.14027	-390.19159	-270.49844	152.20660	237.39363	96.42439	28.52675	234.60487	-44.13148	1051.39075	-952.75165	-184.66014	538.06573	-526.34467	-24.35957	539.27478	-529.98663	-167.35551	606.39166	417.04196	-9.79802	601.76978	415.22385	
6568	65.670	-293.48145	-4.50833	-377.98151	90.73441	123.58015	-393.42422	-271.07779	156.74849	235.24106	97.86244	28.23879	234.99719	-42.93078	1053.44128	-952.07385	-183.79553	539.05469	-526.53259	-23.69036	540.27441	-530.31409	-166.53036	605.79102	416.84219	-9.29352	600.73242	414.85217	
6569	65.680	-292.55676	-3.84281	-377.56952	89.89752	126.84710	-395.82397	-272.33337	159.79607	232.29921	98.63728	27.69948	235.10506	-41.44512	1055.16638	-951.19708	-184.46840	540.46716	-527.24066	-24.09846	541.19897	-530.21490	-165.68491	605.27838	416.86255	-8.27412	600.13574	414.63083	
6570	65.690	-291.36514	-2.81386	-377.42264	89.83252	126.13888	-396.78329	-274.41980	159.94138	230.91942	99.84639	27.31657	235.31297	-40.13840	1056.82556	-950.31085	-183.99983	541.93719	-527.09045	-23.87843	542.38202	-530.15680	-164.02229	605.00861	417.14862	-6.98498	599.43286	414.81406	
6571	65.700	-289.97565	-2.05855	-377.12357	89.58807	123.29074	-397.80228	-277.00201	157.90649	230.30624	100.97782	26.80605	235.73055	-38.64835	1058.41492	-949.13373	-182.71909	542.72357	-526.36450	-23.15904	543.21246	-530.20605	-163.05734	604.61389	417.33154	-5.83894	599.25317	414.69504	
6572	65.710	-289.01425	-1.13772	-376.74487	88.99151	118.98681	-398.39374	-279.22266	154.45509	230.08617	102.35064	26.63134	235.78918	-37.92265	1060.14673	-948.08765	-183.10648	544.37750	-526.46472	-21.95620	544.54474	-530.14038	-161.50613	604.34656	417.89078	-4.42924	598.77789	415.22849	
6573	65.720	-287.58908	-0.49654	-376.34979	88.25224	113.57038	-399.29242	-280.64398	149.93628	230.54240	103.79115	26.20841	236.31343	-37.43233	1061.63428	-947.00818	-181.57785	545.06354	-525.95380	-21.57347	545.15808	-529.97351	-160.52939	603.96198	418.17105	-3.34901	598.23218	415.27518	
6574	65.730	-286.44980	0.28880	-376.03873	87.52242	107.04707	-400.15201	-281.60165	143.73897	230.99310	104.84061	25.86284	236.59810	-36.68967	1063.89636	-945.99329	-181.59680	546.15063	-525.75543	-20.93626	545.90918	-529.53076	-159.23628	603.50031	418.68500	-2.40117	597.38562	415.72363	
6575	65.740	-285.64645	1.11120	-376.08450	86.50280	99.24818	-401.04327	-282.38589	136.50146	231.14529	105.72230	25.18877	236.87239	-36.05941	1065.54626	-944.49933	-179.75035	546.66797	-524.67419	-19.98703	546.68634	-529.02405	-158.13016	603.11798	419.35471	-0.98114	596.74591	416.40903	
6576	65.750	-284.40646	2.06595	-375.62308	85.52654	90.11430	-401.95920	-283.41092	128.06555	231.41606	107.05388	24.67895	237.06592	-34.91006	1067.20142	-943.29834	-180.29289	548.41016	-524.42981	-19.44640	547.63025	-528.63831	-156.57201	602.57465	419.94833	0.15154	595.95593	416.98380	
6577	65.760	-283.48550	3.02813	-375.19385	84.08109	80.23762	-402.35840	-283.61316	117.95592	231.61725	108.52943	24.49772	237.50774	-33.64729	1068.79822	-941.48444	-178.87320	549.05896	-523.17413	-18.98036	548.49915	-528.12762	-155.34135	601.93921	421.08725	1.85759	595.15070	417.64243	
6578	65.770	-282.31735	3.66764	-375.04764	82.76347	69.35559	-402.27109	-284.75394	106.89391	231.65881	109.38528	23.57277	237.53860	-32.16315	1070.78796	-939.79767	-179.05606	550.58490	-522.84650	-18.24431	549.22070	-527.01489	-153.78586	601.29126	421.86972	3.31772	594.03925	418.62439	
6579	65.780	-281.32098	4.61766	-374.68481	81.16388	58.11079	-401.90298	-285.79678	96.70198	232.29839	110.62463	23.27729	237.96553	-30.77843	1072.48889	-937.78070	-177.69769	551.58972	-521.74054	-17.91981	550.09039	-526.47546	-152.64818	600.36603	422.78143	4.62852	592.98981	419.41400	
6580	65.790	-280.04443	5.26971	-374.29099	80.41624	47.18764	-400.79453	-285.57922	86.91233	232.66757	111.70163	22.22486	238.04419	-29.35749	1074.53015	-935.90381	-177.83347	552.75549	-521.06329	-17.16611	550.98663	-525.77356	-151.08638	599.42914	423.85156	5.84301	591.76349	420.25827	
6581	65.800	-278.78091	6.07606	-373.90497	79.59840	37.26606	-399.37189	-285.69528	77.75307	234.41327	113.06361	22.12022	238.49789	-27.93524	1076.53015	-933.53107	-177.25888	554.16595	-520.08789	-16.70597	551.73499	-524.65826	-149.73990	598.80109	424.97424	7.55131	590.54987	421.42047	
6582	65.810	-277.80353	7.16288	-373.65460	79.57672	28.05648	-397.42288	-284.17447	68.72381	236.86392	114.25047	21.70632	238.93675	-26.10984	1078.52759	-931.69696	-175.65544	554.70715	-518.43457	-16.02829	552.58521	-523.60400	-148.46710	597.99335	426.09378	8.67208	589.77142	422.27560	
6583	65.820	-276.66754	7.92870	-373.18280	80.54464	19.76267	-394.69946	-283.17978	59.95214	239.82870	115.22806	21.10026	239.12752	-24.69933	1080.51379	-929.37433	-176.07971	556.55377	-517.75537	-15.90419	553.25421	-522.31177	-147.18222	597.62018	427.44550	10.00924	588.79675	423.36407	
6584	65.830	-275.62473	8.77529	-372.91382	81.52884	12.64991	-391.88754	-281.32333	51.89520	243.45476	116.35877	20.47289	239.53656	-23.31792	1082.29529	-927.15692	-175.41751	557.12122	-516.34906	-15.27215	553.90179	-520.96686	-146.08594	596.94012	428.96964	11.29337	587.89008	425.01724	
6585	65.840	-274.54147	9.93353	-372.54953	83.51983	13.61869	-393.68158	-279.34256	45.33393	247.37494	117.39619	19.81473	239.90057	-22.01151	1083.85632	-925.16943	-173.98596	557.90173	-514.58380	-14.49856	554.76636	-520.00958	-144.90015	596.19373	430.04834	12.70297	586.94464	426.29639	
6586	65.850	-273.37030	10.80281	-372.03110	84.65190	11.30608	-393.52597	-277.94366	39.14436	250.44255	118.70603	19.54944	240.38225	-20.89765	1085.50720	-922.79559	-173.36511	559.17438	-513.09924	-13.21640	556.03662	-518.78687	-144.00760	595.40430	432.36179	13.44567	586.15356	427.50946	
6587	65.860	-272.32492	11.74877	-371.55057	85.98413	11.59335	-392.08087	-276.35342	32.79602	253.47545	120.20959	19.11595	241.03633	-19.68677	1087.44312	-919.99469	-173.62944	561.14307	-512.14465	-12.85674	557.86890	-517.46906	-143.28502	594.56281	433.50677	14.62058	585.11060	428.92636	
6588	65.870	-271.01547	12.95685	-371.21552	86.91336	14.32242	-392.65497	-274.90451	25.66701	255.78398	120.96822	18.43276	241.02603	-18.85246	1089.68176	-917.22522	-172.96632	563.20599	-510.52078	-12.25800	559.99347	-515.78064	-142.14851	593.95850	435.42728	15.62483	583.96191	430.78415	
6589	65.880	-270.15332	14.07438	-370.57077	87.06113	15.53597	-391.74115	-273.69305	15.94043	255.66124	122.23767	17.99797	241.48184	-18.37156	1092.75989	-913.84894	-172.04329	564.83508	-508.47955	-12.43811	561.55872	-514.03271	-140.99037	593.16132	436.95007	16.53954	583.38849	432.11530	
6590	65.890	-268.84619	14.95506	-370.20511	88.24375	17.25400	-390.99979	-275.26273	13.60165	253.21675	122.69943	17.83377	241.85075	-18.14270	1096.27271	-910.68231	-171.29520	566.16290	-506.74445	-11.08403	562.64734	-512.89026	-139.45282	594.40570	438.74985	18.28566	584.04828	433.52838	
6591	65.900	-267.90829	16.93588	-369.59003	88.23449	16.88163	-389.39478	-274.08209	15.27066	256.39099	123.38993	18.68980	242.15816	-18.30447	1099.74915	-908.30554	-170.53883	567.02502	-505.10165	-10.93478	563.19592	-511.22046	-137.97589	596.16681	439.95428	19.78043	585.20502	435.31030	
6592	65.910	-265.35760	22.01673	-368.40906	88.57549	17.53654	-389.32492	-271.46252	13.08866	258.10510	123.11395	21.73514	243.89238	-17.48589	1102.59338	-907.09418	-170.56892	569.20715	-503.59662	-11.44958	564.92297	-509.73709	-136.26797	595.97058	441.45554	21.29835	584.86200	436.45520	
6593	65.920	-261.37439	26.63427	-363.61148	90.23872	18.70512	-388.74039	-271.16446	13.23165	256.69946	121.77474	24.65694	249.48134	-16.31187	1104.19336	-905.20386	-170.87598	571.93567	-502.79352	-10.74978	567.19989	-508.59879	-133.62466	594.47205	442.76770	22.43431	583.88239	437.48773	
6594	65.930	-257.52960	33.92911	-358.86255	91.02523	19.34712	-388.99252	-269.99844	12.43784	257.76398	119.82126	28.99491	253.29968	-14.61744	1105.58911	-902.56232	-170.12688	574.11450	-501.67694	-9.79972	569.12628	-507.66681	-132.69550	593.47833	443.74237	23.84958	582.26794	438.49124	
6595	65.940	-256.58215	45.23861	-358.89767	92.41743	20.05610	-388.68762	-269.11081	11.75788	257.96344	119.91161	38.01791	253.88284	-12.79942	1107.80872	-899.92969	-168.37749	575.40857	-500.11401	-9.02465	570.71631	-506.59912	-130.98915	591.91260	444.85898	25.45189	580.69763	439.74509	
6596	65.950	-255.59175	55.37006	-357.73334	93.66778	20.70685	-388.46631	-268.18484	11.22036	258.21838	120.85473	47.63284	253.01817	-11.38708	1110.77856	-897.32715	-167.58632	576.37921	-499.29117	-7.85312	571.89020	-505.63818	-129.19037	589.82629	445.80838	26.62317	579.47406	440.68152	
6597	65.960	-255.27176	68.55645	-358.56262	94.91140	21.47950	-388.00299	-266.93188	10.61716	258.70605	124.94261	59.00350	250.68272	-9.85763	1113.60767	-894.28180	-166.31467	577.38391	-498.49097	-6.28443	572.77649	-504.66925	-127.73148	588.33246	446.87753	27.58664	578.21350	441.83414	
6598	65.970	-254.01137	80.00880	-359.94119	95.71848	22.36712	-387.64117	-266.25061	10.12620	258.89713	129.31541	70.79047	249.77449	-8.95758	1115.77881	-891.49567	-164.35074	578.63647	-496.84589	-4.21503	573.85217	-503.30090	-127.01657	586.78253	448.04080	29.02833	576.40155	443.08090	
6599	65.980	-253.07126	92.76291	-359.91501	96.77155	23.27946	-387.28558	-265.58911	9.34282	259.45880	133.23161	82.56125	249.22382	-7.86985	1117.86584	-888.61444	-162.92729	579.78387	-495.64966	-2.94653	575.01385	-502.34286	-125.41783	585.28015	449.21442	30.06664	574.48529	444.25024	
6600	65.990	-252.11629	104.62132	-359.69510	97.67767	23.92599	-386.81918	-264.89566	8.75839	259.76624	135.93352	93.41000	250.07025	-6.77007	1120.16577	-885.67468	-161.01704	580.80084	-494.46259	-1.27369	576.14606	-501.12372	-125.46484	583.72998	451.10007	31.73675	572.59100	445.76431	
